<svg width="16" height="16" viewBox="0 0 16 16" fill="none" xmlns="http://www.w3.org/2000/svg">
<path d="M15.2355 0.765302C14.7822 0.312767 14.1679 0.0585938 13.5275 0.0585938C12.887 0.0585938 12.2727 0.312767 11.8195 0.765302L0.976799 11.608C0.6663 11.9167 0.420107 12.284 0.252464 12.6885C0.0848214 13.093 -0.000943247 13.5268 0.000132058 13.9646V15.3333C0.000132058 15.5101 0.07037 15.6797 0.195394 15.8047C0.320418 15.9297 0.489988 16 0.666799 16H2.03547C2.47331 16.0012 2.90704 15.9156 3.31157 15.748C3.71609 15.5805 4.08337 15.3344 4.39213 15.024L15.2355 4.18064C15.6878 3.72743 15.9418 3.11328 15.9418 2.47297C15.9418 1.83266 15.6878 1.21851 15.2355 0.765302V0.765302ZM3.44947 14.0813C3.07347 14.4548 2.56544 14.6651 2.03547 14.6666H1.33347V13.9646C1.33279 13.7019 1.38424 13.4416 1.48482 13.1989C1.58541 12.9562 1.73314 12.7359 1.91947 12.5506L10.1481 4.32197L11.6815 5.8553L3.44947 14.0813ZM14.2921 3.23797L12.6215 4.9093L11.0881 3.3793L12.7595 1.70797C12.8601 1.60751 12.9796 1.52786 13.1111 1.47358C13.2425 1.41929 13.3834 1.39143 13.5256 1.39158C13.6679 1.39174 13.8087 1.41991 13.94 1.47448C14.0714 1.52905 14.1907 1.60896 14.2911 1.70964C14.3916 1.81032 14.4712 1.9298 14.5255 2.06126C14.5798 2.19272 14.6077 2.33359 14.6075 2.47581C14.6074 2.61804 14.5792 2.75885 14.5246 2.89019C14.4701 3.02153 14.3901 3.14084 14.2895 3.2413L14.2921 3.23797Z" fill="#838588"/>
</svg>
