<svg width="16" height="16" viewBox="0 0 16 16" fill="none" xmlns="http://www.w3.org/2000/svg">
<path d="M13.9999 2.66667H11.9333C11.7785 1.91428 11.3691 1.23823 10.7741 0.752479C10.179 0.266727 9.43472 0.000969683 8.66658 0L7.33325 0C6.56511 0.000969683 5.8208 0.266727 5.22575 0.752479C4.63071 1.23823 4.22132 1.91428 4.06659 2.66667H1.99992C1.82311 2.66667 1.65354 2.7369 1.52851 2.86193C1.40349 2.98695 1.33325 3.15652 1.33325 3.33333C1.33325 3.51014 1.40349 3.67971 1.52851 3.80474C1.65354 3.92976 1.82311 4 1.99992 4H2.66659V12.6667C2.66764 13.5504 3.01917 14.3976 3.64407 15.0225C4.26896 15.6474 5.11619 15.9989 5.99992 16H9.99992C10.8836 15.9989 11.7309 15.6474 12.3558 15.0225C12.9807 14.3976 13.3322 13.5504 13.3333 12.6667V4H13.9999C14.1767 4 14.3463 3.92976 14.4713 3.80474C14.5963 3.67971 14.6666 3.51014 14.6666 3.33333C14.6666 3.15652 14.5963 2.98695 14.4713 2.86193C14.3463 2.7369 14.1767 2.66667 13.9999 2.66667ZM7.33325 1.33333H8.66658C9.0801 1.33384 9.48334 1.46225 9.82099 1.70096C10.1587 1.93967 10.4142 2.27699 10.5526 2.66667H5.44725C5.58564 2.27699 5.84119 1.93967 6.17884 1.70096C6.5165 1.46225 6.91974 1.33384 7.33325 1.33333ZM11.9999 12.6667C11.9999 13.1971 11.7892 13.7058 11.4141 14.0809C11.0391 14.456 10.5304 14.6667 9.99992 14.6667H5.99992C5.46949 14.6667 4.96078 14.456 4.58571 14.0809C4.21063 13.7058 3.99992 13.1971 3.99992 12.6667V4H11.9999V12.6667Z" fill="#838588"/>
<path d="M6.66667 11.9996C6.84348 11.9996 7.01304 11.9293 7.13807 11.8043C7.26309 11.6793 7.33333 11.5097 7.33333 11.3329V7.33293C7.33333 7.15611 7.26309 6.98655 7.13807 6.86152C7.01304 6.7365 6.84348 6.66626 6.66667 6.66626C6.48985 6.66626 6.32029 6.7365 6.19526 6.86152C6.07024 6.98655 6 7.15611 6 7.33293V11.3329C6 11.5097 6.07024 11.6793 6.19526 11.8043C6.32029 11.9293 6.48985 11.9996 6.66667 11.9996Z" fill="#838588"/>
<path d="M9.3333 11.9996C9.51011 11.9996 9.67968 11.9293 9.8047 11.8043C9.92973 11.6793 9.99997 11.5097 9.99997 11.3329V7.33293C9.99997 7.15611 9.92973 6.98655 9.8047 6.86152C9.67968 6.7365 9.51011 6.66626 9.3333 6.66626C9.15648 6.66626 8.98691 6.7365 8.86189 6.86152C8.73686 6.98655 8.66663 7.15611 8.66663 7.33293V11.3329C8.66663 11.5097 8.73686 11.6793 8.86189 11.8043C8.98691 11.9293 9.15648 11.9996 9.3333 11.9996Z" fill="#838588"/>
</svg>
